<?xml version="1.0" encoding="UTF-8" standalone="no"?>
<!DOCTYPE svg PUBLIC "-//W3C//DTD SVG 1.1//EN" "http://www.w3.org/Graphics/SVG/1.1/DTD/svg11.dtd">
<svg width="100%" height="100%" viewBox="0 0 4276 4276" version="1.1" xmlns="http://www.w3.org/2000/svg" xmlns:xlink="http://www.w3.org/1999/xlink" xml:space="preserve" xmlns:serif="http://www.serif.com/" style="fill-rule:evenodd;clip-rule:evenodd;stroke-linecap:round;stroke-linejoin:round;stroke-miterlimit:1.5;">
    <g transform="matrix(1,0,0,1,-6105.18,-1362.41)">
        <g id="Artboard3" transform="matrix(0.945783,0,0,0.945783,12095.6,6841.44)">
            <rect x="-6333.82" y="-5793.11" width="4520.24" height="4520.24" style="fill:none;"/>
            <g transform="matrix(1.05733,0,0,1.05733,-6468.9,-5969.75)">
                <path d="M4388.68,1220.84C4388.68,647.105 3922.88,181.306 3349.15,181.306L1181.53,181.306C607.799,181.306 141.999,647.105 141.999,1220.84L141.999,3388.45C141.999,3962.19 607.799,4427.99 1181.53,4427.99L3349.15,4427.99C3922.88,4427.99 4388.68,3962.19 4388.68,3388.45L4388.68,1220.84Z" style="fill:url(#_Linear1);"/>
            </g>
            <g transform="matrix(1.21057,0,0,1.21057,-6803.33,-6223.65)">
                <path d="M2265.34,1197.6C2043.68,1398.79 1532.5,1447.51 1273.98,1297.43C1003.44,2319.34 1381,3021.47 2260.12,3476.12C3177.63,3035.45 3485.76,2303.79 3241.21,1308.21C2932.66,1441.16 2430.61,1386.32 2265.34,1197.6Z" style="fill:none;stroke:white;stroke-width:163.76px;"/>
            </g>
            <g transform="matrix(34.1276,0,0,34.1276,-81980.1,-77333.4)">
                <path d="M2288.09,2158.01C2287.99,2156.82 2287.55,2155.9 2286.76,2155.24C2285.98,2154.57 2284.78,2154.24 2283.18,2154.24C2282.17,2154.24 2281.34,2154.36 2280.69,2154.61C2280.05,2154.85 2279.57,2155.18 2279.26,2155.59C2278.95,2156.01 2278.79,2156.48 2278.78,2157.01C2278.76,2157.45 2278.84,2157.84 2279.02,2158.19C2279.2,2158.54 2279.5,2158.86 2279.9,2159.13C2280.3,2159.41 2280.82,2159.66 2281.45,2159.89C2282.07,2160.11 2282.82,2160.32 2283.68,2160.49L2286.66,2161.13C2288.68,2161.56 2290.4,2162.12 2291.83,2162.82C2293.26,2163.52 2294.44,2164.34 2295.35,2165.28C2296.26,2166.22 2296.93,2167.28 2297.36,2168.45C2297.8,2169.62 2298.02,2170.9 2298.03,2172.28C2298.02,2174.67 2297.42,2176.7 2296.24,2178.36C2295.05,2180.01 2293.36,2181.27 2291.17,2182.14C2288.97,2183 2286.33,2183.43 2283.26,2183.43C2280.1,2183.43 2277.34,2182.97 2274.99,2182.03C2272.64,2181.1 2270.82,2179.65 2269.52,2177.71C2268.23,2175.76 2267.57,2173.26 2267.56,2170.22L2276.93,2170.22C2276.99,2171.34 2277.27,2172.27 2277.77,2173.03C2278.27,2173.79 2278.97,2174.36 2279.87,2174.75C2280.78,2175.14 2281.86,2175.34 2283.11,2175.34C2284.17,2175.34 2285.05,2175.21 2285.76,2174.95C2286.47,2174.68 2287.01,2174.32 2287.38,2173.86C2287.74,2173.4 2287.93,2172.87 2287.94,2172.28C2287.93,2171.73 2287.75,2171.24 2287.4,2170.82C2287.05,2170.4 2286.48,2170.02 2285.69,2169.68C2284.89,2169.34 2283.82,2169.03 2282.47,2168.73L2278.85,2167.95C2275.63,2167.25 2273.1,2166.08 2271.24,2164.44C2269.39,2162.8 2268.47,2160.56 2268.48,2157.72C2268.47,2155.41 2269.09,2153.39 2270.34,2151.66C2271.59,2149.93 2273.32,2148.57 2275.54,2147.6C2277.76,2146.63 2280.31,2146.15 2283.18,2146.15C2286.12,2146.15 2288.66,2146.64 2290.8,2147.62C2292.95,2148.6 2294.6,2149.98 2295.76,2151.77C2296.93,2153.55 2297.52,2155.63 2297.53,2158.01L2288.09,2158.01Z" style="fill:white;fill-rule:nonzero;"/>
            </g>
        </g>
    </g>
    <defs>
        <linearGradient id="_Linear1" x1="0" y1="0" x2="1" y2="0" gradientUnits="userSpaceOnUse" gradientTransform="matrix(-6.82918e-13,4246.68,-4246.68,-6.82918e-13,2265.34,181.306)"><stop offset="0" style="stop-color:rgb(0,22,41);stop-opacity:1"/><stop offset="0.5" style="stop-color:rgb(12,37,59);stop-opacity:1"/><stop offset="1" style="stop-color:rgb(48,83,113);stop-opacity:1"/></linearGradient>
    </defs>
</svg>
